name rise30.9205peak61.366fall85.3838.mot
datacolumns 19
datarows 26
range 16.08994500000000 16.13160500000000
endheader
time	ground_force1_vx	ground_force1_vy	ground_force1_vz	ground_force1_px	ground_force1_py	ground_force1_pz	ground_force2_vx	ground_force2_vy	ground_force2_vz	ground_force2_px	ground_force2_py	ground_force2_pz	ground_torque1_x	ground_torque1_y	ground_torque1_z	ground_torque2_x	ground_torque2_y	ground_torque2_z	
16.08994500000000	-8.33973400000000	40.31093400000000	-9.13488300000000	0.33285200000000	0.00000000000000	0.08823400000000	-50.19080900000000	764.24808700000006	-48.34816800000000	0.15236300000000	0.00000000000000	-0.08391400000000	0.00000000000000	-6.62032000000000	0.00000000000000	0.00000000000000	-20.49400700000000	0.00000000000000	
16.09160400000000	-8.99163300000000	47.38977000000000	-10.20767900000000	0.33735700000000	0.00000000000000	0.08957700000000	-51.00598500000000	761.20705299999997	-47.98427300000000	0.15134500000000	0.00000000000000	-0.08382700000000	0.00000000000000	-7.49080400000000	0.00000000000000	0.00000000000000	-20.46048100000000	0.00000000000000	
16.09327100000000	-9.44610700000000	54.59966400000000	-11.16008900000000	0.34159600000000	0.00000000000000	0.09077000000000	-51.83863400000000	758.06498899999997	-47.60373700000000	0.15032100000000	0.00000000000000	-0.08373700000000	0.00000000000000	-8.29649500000000	0.00000000000000	0.00000000000000	-20.42800400000000	0.00000000000000	
16.09493800000000	-9.68100900000000	61.85270600000000	-11.96818800000000	0.34560300000000	0.00000000000000	0.09183800000000	-52.68748400000000	754.81880300000000	-47.20617100000000	0.14929200000000	0.00000000000000	-0.08364300000000	0.00000000000000	-9.01905200000000	0.00000000000000	0.00000000000000	-20.39634200000000	0.00000000000000	
16.09660500000000	-9.68472500000000	69.08213800000000	-12.61673300000000	0.34940800000000	0.00000000000000	0.09279900000000	-53.55114600000000	751.46531700000003	-46.79120300000000	0.14825900000000	0.00000000000000	-0.08354700000000	0.00000000000000	-9.64586900000000	0.00000000000000	0.00000000000000	-20.36524000000000	0.00000000000000	
16.09827200000000	-9.45584500000000	76.24454299999999	-13.09918700000000	0.35303200000000	0.00000000000000	0.09366800000000	-54.42811400000000	748.00127699999996	-46.35848200000000	0.14722300000000	0.00000000000000	-0.08344800000000	0.00000000000000	-10.17026500000000	0.00000000000000	0.00000000000000	-20.33443300000000	0.00000000000000	
16.09993800000000	-9.00204000000000	83.31973300000000	-13.41703300000000	0.35649400000000	0.00000000000000	0.09445900000000	-55.31677300000000	744.42336499999999	-45.90768600000000	0.14618500000000	0.00000000000000	-0.08334500000000	0.00000000000000	-10.59117500000000	0.00000000000000	0.00000000000000	-20.30363800000000	0.00000000000000	
16.10160500000000	-8.33839500000000	90.30874600000000	-13.57853400000000	0.35981000000000	0.00000000000000	0.09518000000000	-56.21539500000000	740.72820899999999	-45.43851700000000	0.14514500000000	0.00000000000000	-0.08323900000000	0.00000000000000	-10.91241400000000	0.00000000000000	0.00000000000000	-20.27255800000000	0.00000000000000	
16.10327400000000	-7.48541400000000	97.23042200000000	-13.59716900000000	0.36299300000000	0.00000000000000	0.09584200000000	-57.12214600000000	736.91239800000005	-44.95071300000000	0.14410600000000	0.00000000000000	-0.08313000000000	0.00000000000000	-11.14167900000000	0.00000000000000	0.00000000000000	-20.24088600000000	0.00000000000000	
16.10493800000000	-6.46691900000000	104.11711300000000	-13.48988900000000	0.36605300000000	0.00000000000000	0.09645000000000	-58.03509100000000	732.97249399999998	-44.44404500000000	0.14306700000000	0.00000000000000	-0.08301800000000	0.00000000000000	-11.28938800000000	0.00000000000000	0.00000000000000	-20.20830100000000	0.00000000000000	
16.10660600000000	-5.30804400000000	111.01001400000000	-13.27541200000000	0.36899800000000	0.00000000000000	0.09701100000000	-58.95219400000000	728.90504699999997	-43.91832300000000	0.14203000000000	0.00000000000000	-0.08290200000000	0.00000000000000	-11.36750700000000	0.00000000000000	0.00000000000000	-20.17447200000000	0.00000000000000	
16.10827400000000	-4.03345500000000	117.95457300000000	-12.97265400000000	0.37183800000000	0.00000000000000	0.09752900000000	-59.87132800000000	724.70660999999996	-43.37339900000000	0.14099700000000	0.00000000000000	-0.08278200000000	0.00000000000000	-11.38843400000000	0.00000000000000	0.00000000000000	-20.13906200000000	0.00000000000000	
16.10993800000000	-2.66591400000000	124.99632699999999	-12.59941300000000	0.37457800000000	0.00000000000000	0.09801000000000	-60.79027700000000	720.37375199999997	-42.80916900000000	0.13996700000000	0.00000000000000	-0.08266000000000	0.00000000000000	-11.36404600000000	0.00000000000000	0.00000000000000	-20.10172100000000	0.00000000000000	
16.11160700000000	-1.22523200000000	132.17741500000000	-12.17137300000000	0.37722400000000	0.00000000000000	0.09845600000000	-61.70674300000000	715.90308200000004	-42.22557500000000	0.13894200000000	0.00000000000000	-0.08253300000000	0.00000000000000	-11.30494400000000	0.00000000000000	0.00000000000000	-20.06209400000000	0.00000000000000	
16.11327400000000	0.27237800000000	139.53392199999999	-11.70142800000000	0.37978100000000	0.00000000000000	0.09887100000000	-62.61835200000000	711.29125999999997	-41.62261200000000	0.13792300000000	0.00000000000000	-0.08240300000000	0.00000000000000	-11.21991400000000	0.00000000000000	0.00000000000000	-20.01982300000000	0.00000000000000	
16.11493900000000	1.81456100000000	147.09411299999999	-11.19934300000000	0.38225400000000	0.00000000000000	0.09925900000000	-63.52266100000000	706.53502000000003	-41.00032200000000	0.13691200000000	0.00000000000000	-0.08226900000000	0.00000000000000	-11.11563600000000	0.00000000000000	0.00000000000000	-19.97454100000000	0.00000000000000	
16.11662000000000	3.39274900000000	154.87752100000000	-10.67170800000000	0.38464500000000	0.00000000000000	0.09962000000000	-64.41716300000000	701.63118699999995	-40.35880600000000	0.13590900000000	0.00000000000000	-0.08213200000000	0.00000000000000	-10.99658100000000	0.00000000000000	0.00000000000000	-19.92588100000000	0.00000000000000	
16.11827000000000	5.00182100000000	162.89481400000000	-10.12212900000000	0.38695900000000	0.00000000000000	0.09995800000000	-65.29929700000000	696.57669999999996	-39.69821600000000	0.13491500000000	0.00000000000000	-0.08199100000000	0.00000000000000	-10.86511100000000	0.00000000000000	0.00000000000000	-19.87347200000000	0.00000000000000	
16.11993700000000	6.63957400000000	171.14829700000001	-9.55161400000000	0.38919700000000	0.00000000000000	0.10027400000000	-66.16645500000000	691.36862799999994	-39.01876500000000	0.13393200000000	0.00000000000000	-0.08184500000000	0.00000000000000	-10.72170200000000	0.00000000000000	0.00000000000000	-19.81694200000000	0.00000000000000	
16.12160600000000	8.30606800000000	179.63290300000000	-8.95907700000000	0.39136200000000	0.00000000000000	0.10057000000000	-67.01598900000000	686.00419599999998	-38.32072000000000	0.13296000000000	0.00000000000000	-0.08169600000000	0.00000000000000	-10.56528700000000	0.00000000000000	0.00000000000000	-19.75592200000000	0.00000000000000	
16.12327200000000	10.00292900000000	188.33750900000001	-8.34190500000000	0.39345700000000	0.00000000000000	0.10084800000000	-67.84521800000000	680.48080100000004	-37.60441100000000	0.13200200000000	0.00000000000000	-0.08154300000000	0.00000000000000	-10.39363200000000	0.00000000000000	0.00000000000000	-19.69004100000000	0.00000000000000	
16.12493900000000	11.73266400000000	197.24640800000000	-7.69653600000000	0.39548300000000	0.00000000000000	0.10110800000000	-68.65143900000000	674.79603099999997	-36.87022600000000	0.13105700000000	0.00000000000000	-0.08138600000000	0.00000000000000	-10.20375500000000	0.00000000000000	0.00000000000000	-19.61893300000000	0.00000000000000	
16.12660300000000	13.49803800000000	206.34081499999999	-7.01899800000000	0.39744200000000	0.00000000000000	0.10135200000000	-69.43193500000000	668.94768999999997	-36.11861500000000	0.13012700000000	0.00000000000000	-0.08122500000000	0.00000000000000	-9.99230700000000	0.00000000000000	0.00000000000000	-19.54223500000000	0.00000000000000	
16.12827500000000	15.30154800000000	215.60027600000001	-6.30538300000000	0.39933500000000	0.00000000000000	0.10158100000000	-70.18398300000000	662.93380800000000	-35.35008600000000	0.12921400000000	0.00000000000000	-0.08106000000000	0.00000000000000	-9.75592400000000	0.00000000000000	0.00000000000000	-19.45958900000000	0.00000000000000	
16.12994200000000	17.14501300000000	225.00391099999999	-5.55222700000000	0.40116300000000	0.00000000000000	0.10179600000000	-70.90486100000000	656.75265999999999	-34.56521000000000	0.12831700000000	0.00000000000000	-0.08089100000000	0.00000000000000	-9.49151500000000	0.00000000000000	0.00000000000000	-19.37064600000000	0.00000000000000	
16.13160500000000	19.02929000000000	234.53141500000001	-4.75678900000000	0.40292700000000	0.00000000000000	0.10199800000000	-71.59186200000001	650.40278200000000	-33.76461700000000	0.12743900000000	0.00000000000000	-0.08071700000000	0.00000000000000	-9.19648400000000	0.00000000000000	0.00000000000000	-19.27506100000000	0.00000000000000	
